<?xml version="1.0" encoding="UTF-8"?>
<!DOCTYPE svg PUBLIC "-//W3C//DTD SVG 1.1//EN" "http://www.w3.org/Graphics/SVG/1.1/DTD/svg11.dtd">
<svg version="1.1" xmlns="http://www.w3.org/2000/svg" xmlns:xlink="http://www.w3.org/1999/xlink" x="0" y="0" width="512" height="512" viewBox="0, 0, 512, 512">
  <g id="Background">
    <path d="M0,0 L512,0 L512,512 L0,512 L0,0 z" fill="#FFFFFF"/>
  </g>
  <g id="Brandmark">
    <g id="Bug">
      <path d="M368.08,282.327 C368.08,370.535 316.044,442.041 251.854,442.041 C187.664,442.041 135.628,370.535 135.628,282.327 C135.628,194.119 187.664,122.612 251.854,122.612 C316.044,122.612 368.08,194.119 368.08,282.327 z" fill="#F7941D"/>
      <path d="M251.786,258.049 Q251.371,258.049 250.943,257.929 C248.652,303.053 170.127,351.714 189.715,378.804 C209.302,405.894 233.7,421.248 258.552,418.635 C281.784,416.197 301.426,398.458 314.823,371.181 C330.244,340.138 261.982,304.688 251.786,258.049 z" fill="#F15C22" opacity="0.2"/>
      <path d="M252.162,91.02 C286.125,91.02 313.657,110.581 313.657,134.711 C313.657,158.84 286.125,178.48 252.162,178.48 C218.199,178.48 190.679,158.84 190.679,134.711 C190.679,110.581 218.199,91.02 252.162,91.02 z" fill="#F7941D"/>
      <path d="M127.455,195.161 C70.1,256.027 48.583,329.446 79.384,359.15 C110.186,388.852 181.663,363.557 239.005,302.678 C296.348,241.798 317.878,168.378 287.077,138.689 C256.275,109 184.798,134.268 127.455,195.161 z" fill="#ED1C24"/>
      <path d="M385.081,192.709 C442.772,253.213 463.645,326.968 431.706,357.501 C399.765,388.035 327.069,363.624 269.365,303.107 C211.661,242.589 190.8,168.781 222.754,138.288 C254.707,107.794 327.377,132.205 385.081,192.709 z" fill="#ED1C24"/>
      <path d="M145.864,191.115 C96.145,232.165 93.332,271.689 78.728,310.127 C77.643,312.954 81.112,315.178 82.855,317.348 C213.737,153.481 183.807,347.038 217.542,280.558 C249.134,218.312 279.748,212.886 280.511,154.311 C281.275,95.736 200.446,146.084 145.864,191.115 z" fill="#ED1C24" opacity="0.7"/>
      <path d="M222.914,79.217 C222.922,84.339 218.775,88.497 213.653,88.501 C208.531,88.506 204.375,84.356 204.372,79.234 C204.37,74.112 208.521,69.959 213.643,69.959 C216.101,69.956 218.46,70.929 220.198,72.666 C221.938,74.402 222.914,76.759 222.914,79.217 z" fill="#ED1C24"/>
      <path d="M303.275,79.217 C303.275,84.33 299.129,88.474 294.017,88.474 C288.903,88.474 284.759,84.33 284.759,79.217 C284.759,74.104 288.903,69.959 294.017,69.959 C299.129,69.959 303.275,74.104 303.275,79.217 z" fill="#ED1C24"/>
    </g>
    <g id="Dots">
      <path d="M194.096,171.018 C188.458,178.573 190.011,189.268 197.566,194.907 C205.121,200.544 215.816,198.991 221.455,191.436 C227.092,183.881 225.539,173.186 217.984,167.548 C210.429,161.91 199.734,163.463 194.096,171.018 z" fill="#231F20"/>
      <path d="M267.958,161.251 C261.641,169.698 263.371,181.667 271.821,187.98 C280.271,194.293 292.239,192.557 298.548,184.104 C304.857,175.652 303.115,163.684 294.66,157.379 C286.217,151.075 274.262,152.808 267.958,161.251 z" fill="#231F20"/>
      <path d="M273.437,227.275 C268.764,233.529 270.046,242.389 276.301,247.061 C282.557,251.733 291.415,250.449 296.086,244.192 C300.757,237.936 299.47,229.077 293.212,224.408 C286.96,219.742 278.108,221.026 273.437,227.275 z" fill="#231F20"/>
      <path d="M383.46,241.45 C378.757,247.754 380.053,256.676 386.356,261.38 C392.658,266.085 401.581,264.79 406.287,258.487 C410.992,252.185 409.698,243.262 403.396,238.556 C400.37,236.292 396.568,235.325 392.828,235.867 C389.088,236.411 385.717,238.419 383.46,241.45 z" fill="#231F20"/>
      <path d="M338.791,199.796 C335.744,203.956 336.627,209.796 340.766,212.869 C344.906,215.943 350.752,215.098 353.852,210.977 C356.951,206.857 356.143,201.006 352.042,197.881 C350.04,196.354 347.507,195.697 345.015,196.057 C342.523,196.418 340.28,197.766 338.791,199.796 z" fill="#231F20"/>
      <path d="M129.774,300.682 C124.819,307.264 126.14,316.617 132.726,321.569 C139.311,326.52 148.664,325.192 153.611,318.604 C158.558,312.016 157.225,302.664 150.634,297.72 C144.054,292.785 134.72,294.111 129.774,300.682 z" fill="#231F20"/>
      <path d="M321.629,259.631 C315.325,268.073 317.059,280.028 325.502,286.333 C333.944,292.637 345.898,290.903 352.203,282.46 C358.507,274.018 356.774,262.063 348.331,255.759 C339.889,249.455 327.933,251.188 321.629,259.631 z" fill="#231F20"/>
      <path d="M172.003,251.016 C168.941,255.173 169.815,261.025 173.959,264.105 C178.103,267.186 183.958,266.337 187.056,262.205 C190.155,258.074 189.331,252.216 185.214,249.101 C181.034,245.993 175.128,246.85 172.003,251.016 z" fill="#231F20"/>
      <path d="M387.318,318.876 C384.251,323.033 385.122,328.888 389.268,331.97 C393.413,335.053 399.272,334.202 402.37,330.068 C405.468,325.934 404.638,320.073 400.515,316.96 C398.516,315.45 395.996,314.804 393.517,315.164 C391.038,315.524 388.806,316.86 387.318,318.876 z" fill="#231F20"/>
      <path d="M214.045,261.373 C209.579,267.355 210.807,275.826 216.791,280.293 C222.774,284.759 231.245,283.529 235.711,277.546 C240.177,271.562 238.947,263.091 232.963,258.626 C226.981,254.161 218.511,255.391 214.045,261.373 z" fill="#231F20"/>
      <path d="M117.675,224.596 C112.2,231.938 113.713,242.329 121.055,247.805 C128.396,253.282 138.787,251.772 144.265,244.431 C149.743,237.09 148.234,226.698 140.893,221.22 C133.551,215.738 123.153,217.25 117.675,224.596 z" fill="#231F20"/>
    </g>
  </g>
</svg>
