<?xml version="1.0" encoding="UTF-8"?>
<!DOCTYPE svg PUBLIC "-//W3C//DTD SVG 1.1//EN" "http://www.w3.org/Graphics/SVG/1.1/DTD/svg11.dtd">
<svg version="1.1" xmlns="http://www.w3.org/2000/svg" xmlns:xlink="http://www.w3.org/1999/xlink" x="0" y="0" width="512" height="512" viewBox="0, 0, 512, 512">
  <g id="Circle">
    <path d="M256,510 C115.72,510 2,396.28 2,256 C2,115.72 115.72,2 256,2 C396.28,2 510,115.72 510,256 C510,396.28 396.28,510 256,510 z" fill="#FFFFFF"/>
    <path d="M256,2 C396.28,2 510,115.72 510,256 C510,396.28 396.28,510 256,510 C115.72,510 2,396.28 2,256 C2,115.72 115.72,2 256,2 z M256,7 C118.481,7 7,118.481 7,256 C7,393.519 118.481,505 256,505 C393.519,505 505,393.519 505,256 C505,118.481 393.519,7 256,7 z" fill="#EA212D"/>
  </g>
  <g id="Brandmark">
    <g id="Bug">
      <path d="M360.85,280.629 C360.85,363.147 312.171,430.041 252.121,430.041 C192.072,430.041 143.393,363.147 143.393,280.629 C143.393,198.11 192.072,131.216 252.121,131.216 C312.171,131.216 360.85,198.11 360.85,280.629 z" fill="#F7941D"/>
      <path d="M252.058,257.917 Q251.67,257.917 251.269,257.805 C249.126,300.018 175.666,345.54 193.99,370.883 C212.314,396.225 235.138,410.589 258.388,408.145 C280.121,405.864 298.496,389.269 311.029,363.751 C325.455,334.711 261.596,301.547 252.058,257.917 z" fill="#F15C22" opacity="0.2"/>
      <path d="M252.409,101.661 C284.182,101.661 309.938,119.96 309.938,142.534 C309.938,165.107 284.182,183.481 252.409,183.481 C220.637,183.481 194.893,165.107 194.893,142.534 C194.893,119.96 220.637,101.661 252.409,101.661 z" fill="#F7941D"/>
      <path d="M135.747,199.085 C82.091,256.025 61.962,324.709 90.776,352.496 C119.591,380.283 186.458,356.619 240.102,299.667 C293.745,242.714 313.887,174.03 285.072,146.256 C256.257,118.481 189.39,142.12 135.747,199.085 z" fill="#ED1C24"/>
      <path d="M376.755,196.791 C430.725,253.393 450.252,322.39 420.372,350.954 C390.492,379.518 322.485,356.682 268.503,300.068 C214.521,243.454 195.005,174.406 224.898,145.88 C254.791,117.354 322.773,140.19 376.755,196.791 z" fill="#ED1C24"/>
      <path d="M152.968,195.3 C106.456,233.703 103.824,270.677 90.162,306.636 C89.147,309.28 92.393,311.361 94.023,313.391 C216.463,160.093 188.463,341.166 220.023,278.974 C249.577,220.743 278.216,215.667 278.93,160.87 C279.645,106.074 204.03,153.174 152.968,195.3 z" fill="#ED1C24" opacity="0.7"/>
      <path d="M225.048,90.62 C225.056,95.412 221.176,99.301 216.384,99.305 C211.593,99.31 207.705,95.428 207.702,90.636 C207.7,85.844 211.584,81.959 216.375,81.959 C218.674,81.956 220.881,82.866 222.507,84.491 C224.135,86.116 225.048,88.321 225.048,90.62 z" fill="#ED1C24"/>
      <path d="M300.225,90.62 C300.225,95.403 296.347,99.28 291.564,99.28 C286.781,99.28 282.904,95.403 282.904,90.62 C282.904,85.836 286.781,81.959 291.564,81.959 C296.347,81.959 300.225,85.836 300.225,90.62 z" fill="#ED1C24"/>
    </g>
    <g id="Dots">
      <path d="M198.089,176.499 C192.814,183.567 194.267,193.572 201.335,198.847 C208.402,204.121 218.408,202.668 223.683,195.601 C228.957,188.533 227.504,178.528 220.436,173.254 C213.369,167.979 203.363,169.432 198.089,176.499 z" fill="#231F20"/>
      <path d="M267.186,167.362 C261.277,175.264 262.896,186.461 270.8,192.367 C278.706,198.273 289.902,196.649 295.803,188.741 C301.705,180.834 300.076,169.639 292.166,163.74 C284.268,157.843 273.084,159.464 267.186,167.362 z" fill="#231F20"/>
      <path d="M272.312,229.128 C267.94,234.979 269.14,243.267 274.992,247.638 C280.844,252.008 289.131,250.807 293.5,244.954 C297.87,239.101 296.666,230.814 290.812,226.446 C284.963,222.081 276.682,223.282 272.312,229.128 z" fill="#231F20"/>
      <path d="M375.238,242.389 C370.839,248.286 372.051,256.632 377.947,261.033 C383.843,265.434 392.191,264.223 396.593,258.327 C400.995,252.431 399.784,244.084 393.888,239.681 C391.058,237.563 387.501,236.659 384.002,237.166 C380.503,237.674 377.35,239.553 375.238,242.389 z" fill="#231F20"/>
      <path d="M333.451,203.421 C330.6,207.313 331.426,212.776 335.298,215.651 C339.172,218.527 344.64,217.736 347.54,213.881 C350.44,210.026 349.684,204.553 345.847,201.63 C343.974,200.201 341.605,199.587 339.273,199.924 C336.942,200.261 334.844,201.522 333.451,203.421 z" fill="#231F20"/>
      <path d="M137.915,297.8 C133.28,303.957 134.517,312.707 140.677,317.339 C146.837,321.972 155.587,320.729 160.215,314.566 C164.843,308.403 163.596,299.654 157.43,295.029 C151.275,290.413 142.543,291.652 137.915,297.8 z" fill="#231F20"/>
      <path d="M317.396,259.396 C311.499,267.294 313.121,278.478 321.019,284.376 C328.917,290.274 340.1,288.651 345.998,280.753 C351.895,272.855 350.274,261.672 342.376,255.774 C334.478,249.877 323.294,251.498 317.396,259.396 z" fill="#231F20"/>
      <path d="M177.421,251.337 C174.556,255.227 175.374,260.701 179.251,263.582 C183.128,266.465 188.605,265.67 191.503,261.805 C194.402,257.941 193.631,252.46 189.779,249.546 C185.869,246.638 180.344,247.44 177.421,251.337 z" fill="#231F20"/>
      <path d="M378.848,314.82 C375.978,318.709 376.794,324.186 380.672,327.07 C384.55,329.954 390.03,329.158 392.929,325.291 C395.827,321.423 395.051,315.94 391.194,313.028 C389.323,311.616 386.966,311.011 384.647,311.347 C382.328,311.684 380.24,312.934 378.848,314.82 z" fill="#231F20"/>
      <path d="M216.752,261.026 C212.573,266.623 213.723,274.547 219.32,278.726 C224.917,282.904 232.842,281.753 237.019,276.156 C241.198,270.559 240.047,262.634 234.449,258.456 C228.852,254.28 220.929,255.43 216.752,261.026 z" fill="#231F20"/>
      <path d="M126.598,226.622 C121.475,233.49 122.89,243.211 129.759,248.334 C136.626,253.458 146.348,252.045 151.472,245.177 C156.596,238.31 155.185,228.588 148.318,223.463 C141.449,218.335 131.722,219.749 126.598,226.622 z" fill="#231F20"/>
    </g>
  </g>
</svg>
