<svg viewBox="0 0 284.63 405.59" xmlns="http://www.w3.org/2000/svg"><ellipse cx="139.22" cy="158.51" fill="#f7941d" rx="86.75" ry="119.21"/><path d="m139.17 140.39q-.31 0-.63-.09c-1.71 33.68-60.32 70-45.7 90.22s32.83 31.68 51.38 29.73c17.34-1.82 32-15.06 42-35.42 11.51-23.17-39.44-49.63-47.05-84.44z" fill="#f15c22" opacity=".2"/><path d="m139.45 15.72c25.35 0 45.9 14.6 45.9 32.61s-20.55 32.67-45.9 32.67-45.89-14.66-45.89-32.67 20.54-32.61 45.89-32.61z" fill="#f7941d"/><path d="m46.37 93.45c-42.81 45.43-58.87 100.23-35.88 122.4s76.34 3.29 119.14-42.15 58.87-100.24 35.88-122.4-76.34-3.3-119.14 42.15z" fill="#ed1c24"/><path d="m238.66 91.62c43.06 45.16 58.64 100.21 34.8 123s-78.1 4.57-121.17-40.6-58.64-100.26-34.79-123.02 78.09-4.54 121.16 40.62z" fill="#ed1c24"/><path d="m60.11 90.43c-37.11 30.64-39.21 60.14-50.11 88.83-.81 2.11 1.78 3.77 3.08 5.39 97.69-122.31 75.35 22.16 100.53-27.46 23.58-46.46 46.43-50.51 47-94.23s-59.76-6.14-100.5 27.47z" fill="#ed1c24" opacity=".7"/><path d="m111 142.87a10.09 10.09 0 1 0 14.12-2.05 10.09 10.09 0 0 0 -14.12 2.05z" fill="#231f20"/><path d="m39.07 115.42a12.38 12.38 0 1 0 17.33-2.52 12.38 12.38 0 0 0 -17.33 2.52z" fill="#231f20"/><path d="m32.94 371.82a6.54 6.54 0 0 1 .89.06c.3 0 .56.05.78.05a10.75 10.75 0 0 0 3.78-.55 6 6 0 0 0 2.22-1.38 4.33 4.33 0 0 0 1-1.89 13.15 13.15 0 0 0 .39-2.17v-54h6.22v54.06a11.69 11.69 0 0 1 -1 5 12.41 12.41 0 0 1 -2.89 3.94 13.21 13.21 0 0 1 -4.16 2.56 13.71 13.71 0 0 1 -4.89.89q-.56 0-1.17-.06a10.62 10.62 0 0 1 -1.17-.17zm6.45-77.76a4.84 4.84 0 0 1 1.55-3.62 5 5 0 0 1 3.56-1.5 4.85 4.85 0 0 1 3.66 1.5 5.05 5.05 0 0 1 1.45 3.62 5 5 0 0 1 -5.11 5.11 5.1 5.1 0 0 1 -3.56-1.45 4.75 4.75 0 0 1 -1.55-3.66z" fill="#ed1c24"/><path d="m57.16 294.17a4.94 4.94 0 0 1 5.11-5.11 5 5 0 0 1 5 5.11 5 5 0 0 1 -1.5 3.55 4.7 4.7 0 0 1 -3.5 1.56 4.76 4.76 0 0 1 -3.66-1.56 5.05 5.05 0 0 1 -1.45-3.55zm8.11 62.43h-6v-44.66h6z" fill="#ed1c24"/><path d="m93.38 351.38a.2.2 0 0 0 .16-.06.52.52 0 0 1 .28-.05h2.67v5.44a8.09 8.09 0 0 1 -1.95.78 6.78 6.78 0 0 1 -1.16.11 12.83 12.83 0 0 1 -8.56-3 10.18 10.18 0 0 1 -3.55-8.22v-28.33h-7.11v-6.11h7.11v-14.22h6.22v14.22h8.89v6.11h-8.89v28.33a4.36 4.36 0 0 0 1.67 3.78 7 7 0 0 0 4.22 1.22z" fill="#ed1c24"/><g fill="#231f20"><path d="m105.26 290.06h6.34v28.77a29.06 29.06 0 0 1 7.49-5.39 20.31 20.31 0 0 1 9.28-2.17 22 22 0 0 1 8.94 1.84 23.8 23.8 0 0 1 12.33 12.33 21.84 21.84 0 0 1 1.84 8.94 22.14 22.14 0 0 1 -1.84 9.06 23.88 23.88 0 0 1 -5 7.33 23.18 23.18 0 0 1 -7.28 4.94 21.81 21.81 0 0 1 -8.78 1.78 23.3 23.3 0 0 1 -16.44-6.78l-.55-.55v6.44h-6.34zm23.11 27.77a16.05 16.05 0 0 0 -6.5 1.33 16.77 16.77 0 0 0 -8.83 8.78 16.28 16.28 0 0 0 0 12.89 17.78 17.78 0 0 0 3.55 5.27 16.57 16.57 0 0 0 5.28 3.61 16.06 16.06 0 0 0 6.5 1.34 15.64 15.64 0 0 0 6.44-1.34 17.35 17.35 0 0 0 8.89-8.88 16.28 16.28 0 0 0 0-12.89 16.65 16.65 0 0 0 -3.61-5.22 18 18 0 0 0 -5.28-3.56 15.63 15.63 0 0 0 -6.44-1.33z"/><path d="m177.59 351.15a17.5 17.5 0 0 0 6.11-1.15 18.86 18.86 0 0 0 5.38-3.05 17.58 17.58 0 0 0 3.95-4.5 11.17 11.17 0 0 0 1.67-5.44v-25.07h5.88v44.66h-5.88v-6.23a26.59 26.59 0 0 1 -7.95 5.23 22.93 22.93 0 0 1 -9.16 2 17.28 17.28 0 0 1 -7.72-1.67 17 17 0 0 1 -5.72-4.5 19.9 19.9 0 0 1 -3.56-6.66 26.91 26.91 0 0 1 -1.22-8.17v-24.66h6.33v24.66a17.12 17.12 0 0 0 3.06 10.33 10.21 10.21 0 0 0 8.83 4.22z"/><path d="m232.91 405.59a22.57 22.57 0 0 1 -8.94-1.77 23.7 23.7 0 0 1 -7.34-4.89 23.27 23.27 0 0 1 -5-7.33 22.71 22.71 0 0 1 -1.83-9.11 21.11 21.11 0 0 1 4-12.67 25.73 25.73 0 0 1 10.2-8.44 12.68 12.68 0 0 1 2.5-.84c.85-.18 1.76-.35 2.72-.49v-2.67a30.78 30.78 0 0 1 -5.22-1.45 26.13 26.13 0 0 1 -10-8.55 24.24 24.24 0 0 1 -3.06-5.94 20.16 20.16 0 0 1 -1.11-6.72 22 22 0 0 1 1.83-9 24.09 24.09 0 0 1 5-7.33 23.84 23.84 0 0 1 7.34-5 21.93 21.93 0 0 1 8.94-1.83 22.42 22.42 0 0 1 9 1.83 23 23 0 0 1 7.33 5 23.77 23.77 0 0 1 4.89 7.33 22.66 22.66 0 0 1 1.78 9 21.69 21.69 0 0 1 -3.94 12.83 24.83 24.83 0 0 1 -10.34 8.38h.12a20.58 20.58 0 0 1 -6.45 1.67v2.33a27.39 27.39 0 0 1 6.33 1.45 25.58 25.58 0 0 1 10.23 8.5 21.24 21.24 0 0 1 4 12.61 23.38 23.38 0 0 1 -1.78 9.11 22.8 22.8 0 0 1 -21.22 14zm0-87.54a16.71 16.71 0 0 0 -6.5 1.28 16.18 16.18 0 0 0 -5.28 3.5 17 17 0 0 0 -3.55 5.28 16.3 16.3 0 0 0 -1.33 6.61 15.67 15.67 0 0 0 1.33 6.44 17.17 17.17 0 0 0 3.55 5.22 16.18 16.18 0 0 0 5.28 3.5 16.71 16.71 0 0 0 6.5 1.28 16.31 16.31 0 0 0 6.44-1.28 17.07 17.07 0 0 0 5.28-3.5 16.65 16.65 0 0 0 3.61-5.22 15.67 15.67 0 0 0 1.33-6.44 16.3 16.3 0 0 0 -1.33-6.61 16.46 16.46 0 0 0 -3.61-5.28 17.07 17.07 0 0 0 -5.28-3.5 16.31 16.31 0 0 0 -6.44-1.28zm0 48a16.71 16.71 0 0 0 -6.5 1.28 16.18 16.18 0 0 0 -5.28 3.5 17.17 17.17 0 0 0 -3.55 5.22 15.68 15.68 0 0 0 -1.33 6.45 17 17 0 0 0 4.88 12 16.18 16.18 0 0 0 5.28 3.5 16.71 16.71 0 0 0 6.5 1.28 16.31 16.31 0 0 0 6.44-1.28 17.07 17.07 0 0 0 5.28-3.5 16.36 16.36 0 0 0 3.61-5.33 16.71 16.71 0 0 0 1.33-6.66 15.68 15.68 0 0 0 -1.33-6.45 16.65 16.65 0 0 0 -3.61-5.22 17.07 17.07 0 0 0 -5.28-3.5 16.31 16.31 0 0 0 -6.44-1.34z"/><path d="m37.22 392.84a2.44 2.44 0 0 0 -.8-1.17 2 2 0 0 0 -1.25-.46 2.17 2.17 0 0 0 -1.49.56 1.72 1.72 0 0 0 -.61 1.29 1.15 1.15 0 0 0 .46.94 3.41 3.41 0 0 0 1.19.6c.62.21 1.17.41 1.64.61a5.1 5.1 0 0 1 1.21.67 2.56 2.56 0 0 1 .74.9 2.85 2.85 0 0 1 .25 1.27 3.25 3.25 0 0 1 -.3 1.42 3.31 3.31 0 0 1 -.85 1.08 3.75 3.75 0 0 1 -1.22.69 4.36 4.36 0 0 1 -1.47.24 4 4 0 0 1 -1.34-.22 3.65 3.65 0 0 1 -1-.54 5.09 5.09 0 0 1 -.82-.79 9 9 0 0 1 -.64-.92l1.51-.79a4.06 4.06 0 0 0 1 1.18 3.35 3.35 0 0 0 .67.41 1.65 1.65 0 0 0 .66.15 2.55 2.55 0 0 0 1.57-.52 1.6 1.6 0 0 0 .7-1.36 1.17 1.17 0 0 0 -.29-.76 2.82 2.82 0 0 0 -.68-.56 5.07 5.07 0 0 0 -.7-.35 1.86 1.86 0 0 0 -.38-.12c-.43-.12-.85-.24-1.27-.39a4.57 4.57 0 0 1 -1.12-.59 2.87 2.87 0 0 1 -.8-.93 3.16 3.16 0 0 1 0-2.73 3 3 0 0 1 .81-1 3.87 3.87 0 0 1 1.18-.66 4.46 4.46 0 0 1 1.43-.23 3.34 3.34 0 0 1 2.1.72 4.54 4.54 0 0 1 1.4 1.88z"/><path d="m45.32 399.82h.07.68v1.38a2.38 2.38 0 0 1 -.49.19h-.3a3.22 3.22 0 0 1 -2.16-.76 2.54 2.54 0 0 1 -.89-2.07v-7.15h-1.8v-1.54h1.8v-3.59h1.57v3.59h2.24v1.54h-2.2v7.15a1.09 1.09 0 0 0 .42.95 1.71 1.71 0 0 0 1.06.31z"/><path d="m59.12 401.14h-1.6v-1.63l-.14.14a5.5 5.5 0 0 1 -1.89 1.26 5.84 5.84 0 0 1 -2.26.45 5.54 5.54 0 0 1 -2.22-.45 5.7 5.7 0 0 1 -1.83-1.24 5.78 5.78 0 0 1 -1.26-1.86 5.72 5.72 0 0 1 0-4.54 5.84 5.84 0 0 1 1.26-1.85 6.07 6.07 0 0 1 1.82-1.26 5.5 5.5 0 0 1 2.26-.46 5.16 5.16 0 0 1 2.34.54 7.48 7.48 0 0 1 1.89 1.36v-1.73h1.6zm-5.83-9.79a3.87 3.87 0 0 0 -1.63.34 4.22 4.22 0 0 0 -1.33.9 4 4 0 0 0 -.91 1.31 4.08 4.08 0 0 0 0 3.26 4.2 4.2 0 0 0 .91 1.33 4.25 4.25 0 0 0 1.33.91 4 4 0 0 0 1.63.34 4.19 4.19 0 0 0 1.64-.34 4.25 4.25 0 0 0 1.33-.91 4.73 4.73 0 0 0 .9-1.33 4.19 4.19 0 0 0 0-3.26 4.49 4.49 0 0 0 -.9-1.31 4.22 4.22 0 0 0 -1.33-.9 4 4 0 0 0 -1.64-.34z"/><path d="m60.55 391.44v-1.57h1.45v-2.28a3.17 3.17 0 0 1 .3-1.38 3.31 3.31 0 0 1 .8-1.08 3.47 3.47 0 0 1 1.16-.69 4 4 0 0 1 1.39-.24h.29a4.83 4.83 0 0 1 .61.17v1.48h-.9a2.21 2.21 0 0 0 -1.39.45 1.51 1.51 0 0 0 -.57 1.26v2.28h1.37v1.57h-1.31v9.7h-1.75v-9.7z"/><path d="m65.46 391.44v-1.57h1.48v-2.28a3.28 3.28 0 0 1 1.1-2.46 3.47 3.47 0 0 1 1.16-.69 4 4 0 0 1 1.39-.24h.29a4.84 4.84 0 0 1 .6.17v1.48h-.89a2.17 2.17 0 0 0 -1.39.45 1.52 1.52 0 0 0 -.58 1.26v2.28h1.38v1.57h-1.35v9.7h-1.71v-9.7z"/><path d="m84.22 401.39a5.56 5.56 0 0 1 -2.25-.46 5.84 5.84 0 0 1 -1.85-1.26 6.27 6.27 0 0 1 -1.25-1.86 5.76 5.76 0 0 1 0-4.51 6.22 6.22 0 0 1 1.25-1.85 5.84 5.84 0 0 1 1.88-1.26 5.56 5.56 0 0 1 2.25-.46 5.7 5.7 0 0 1 2.28.46 5.93 5.93 0 0 1 1.87 1.26 6 6 0 0 1 1.24 1.85 5.64 5.64 0 0 1 0 4.51 6.06 6.06 0 0 1 -1.24 1.86 5.93 5.93 0 0 1 -1.87 1.26 5.7 5.7 0 0 1 -2.31.46zm0-10a3.87 3.87 0 0 0 -1.63.34 4.25 4.25 0 0 0 -1.33.91 4.1 4.1 0 0 0 -1.22 3 4 4 0 0 0 .32 1.62 4.19 4.19 0 0 0 3.86 2.56 4.23 4.23 0 0 0 1.65-.33 4 4 0 0 0 1.35-.89 4.54 4.54 0 0 0 .89-1.34 3.83 3.83 0 0 0 .34-1.62 3.9 3.9 0 0 0 -.34-1.63 4.5 4.5 0 0 0 -.89-1.33 4.23 4.23 0 0 0 -1.35-.91 4.06 4.06 0 0 0 -1.65-.42z"/><path d="m98.21 391.24a4.32 4.32 0 0 0 -1.54.28 4.66 4.66 0 0 0 -1.36.77 4.32 4.32 0 0 0 -1 1.14 2.82 2.82 0 0 0 -.42 1.37v6.34h-1.49v-11.27h1.49v1.57a6.38 6.38 0 0 1 2-1.32 5.68 5.68 0 0 1 2.31-.51 4.37 4.37 0 0 1 2 .42 4.24 4.24 0 0 1 1.44 1.14 5.21 5.21 0 0 1 .9 1.68 6.63 6.63 0 0 1 .31 2.06v6.23h-1.6v-6.23a4.35 4.35 0 0 0 -.77-2.6 2.57 2.57 0 0 0 -2.27-1.07z"/><path d="m124.18 401.14h-1.6v-1.63l-.14.14a5.64 5.64 0 0 1 -1.9 1.26 5.79 5.79 0 0 1 -2.25.45 5.51 5.51 0 0 1 -2.22-.45 5.85 5.85 0 0 1 -1.84-1.24 6.11 6.11 0 0 1 -1.26-1.86 5.83 5.83 0 0 1 0-4.54 6.19 6.19 0 0 1 1.26-1.85 6.11 6.11 0 0 1 1.86-1.26 5.49 5.49 0 0 1 2.25-.46 5.16 5.16 0 0 1 2.34.54 7.53 7.53 0 0 1 1.9 1.36v-7.26h1.6zm-5.84-9.79a3.83 3.83 0 0 0 -1.62.34 4.39 4.39 0 0 0 -1.34.9 4.33 4.33 0 0 0 -.91 1.31 4.19 4.19 0 0 0 0 3.26 4.55 4.55 0 0 0 .91 1.33 4.42 4.42 0 0 0 1.34.91 4 4 0 0 0 1.62.34 4.11 4.11 0 0 0 1.64-.34 4.18 4.18 0 0 0 1.34-.91 4.5 4.5 0 0 0 .89-1.33 4.08 4.08 0 0 0 0-3.26 4.28 4.28 0 0 0 -.89-1.31 4.16 4.16 0 0 0 -1.34-.9 4 4 0 0 0 -1.64-.34z"/><path d="m137.16 398.9a6.87 6.87 0 0 1 -2.09 1.8 5.15 5.15 0 0 1 -2.54.66 5.86 5.86 0 0 1 -2.3-.45 5.62 5.62 0 0 1 -1.86-1.24 6.16 6.16 0 0 1 -1.26-1.87 5.7 5.7 0 0 1 -.47-2.3 5.63 5.63 0 0 1 .47-2.27 6 6 0 0 1 1.26-1.86 5.76 5.76 0 0 1 4.16-1.73 5.67 5.67 0 0 1 2.26.46 5.93 5.93 0 0 1 1.85 1.27 6 6 0 0 1 1.26 1.86 5.63 5.63 0 0 1 .47 2.27v.76h-10a3.46 3.46 0 0 0 .49 1.33 4.37 4.37 0 0 0 1 1.11 4.71 4.71 0 0 0 1.28.76 4.11 4.11 0 0 0 3.42-.2 4.6 4.6 0 0 0 1.54-1.35zm-.76-5a3.81 3.81 0 0 0 -1.48-1.87 4.23 4.23 0 0 0 -2.39-.68 4.24 4.24 0 0 0 -2.77 1 4 4 0 0 0 -.94 1.1 3.51 3.51 0 0 0 -.49 1.38h8.35a3.89 3.89 0 0 0 -.28-.98z"/><path d="m150.7 401.14h-1.43v-6.25a4.56 4.56 0 0 0 -.22-1.46 4 4 0 0 0 -.62-1.18 2.92 2.92 0 0 0 -1-.8 2.57 2.57 0 0 0 -1.23-.3 3.39 3.39 0 0 0 -1.32.27 4.23 4.23 0 0 0 -1.18.73 3.56 3.56 0 0 0 -.87 1.12 3.8 3.8 0 0 0 -.39 1.42v6.45h-1.44v-11.27h1.52v1.43l.08-.12a6.18 6.18 0 0 1 1.7-1.18 4.69 4.69 0 0 1 1.95-.44 3.92 3.92 0 0 1 2.27.68 4.77 4.77 0 0 1 1.57 1.85 5.43 5.43 0 0 1 1.91-1.84 4.82 4.82 0 0 1 2.49-.69 4.12 4.12 0 0 1 1.87.43 4.26 4.26 0 0 1 1.4 1.13 5.37 5.37 0 0 1 .88 1.68 6.69 6.69 0 0 1 .31 2.07v6.25h-1.49v-6.25a4.86 4.86 0 0 0 -.21-1.46 3.73 3.73 0 0 0 -.59-1.18 2.7 2.7 0 0 0 -.94-.8 2.54 2.54 0 0 0 -1.23-.3 3.32 3.32 0 0 0 -1.29.27 4.47 4.47 0 0 0 -1.19.74 4.15 4.15 0 0 0 -.91 1.13 3 3 0 0 0 -.42 1.37z"/><path d="m172.33 401.14h-1.6v-1.63l-.14.14a5.64 5.64 0 0 1 -1.9 1.26 5.79 5.79 0 0 1 -2.25.45 5.51 5.51 0 0 1 -2.22-.45 5.85 5.85 0 0 1 -1.84-1.24 6.11 6.11 0 0 1 -1.26-1.86 5.83 5.83 0 0 1 0-4.54 6.19 6.19 0 0 1 1.26-1.85 6.11 6.11 0 0 1 1.86-1.26 5.49 5.49 0 0 1 2.25-.46 5.16 5.16 0 0 1 2.34.54 7.72 7.72 0 0 1 1.9 1.36v-1.73h1.6zm-5.84-9.79a3.83 3.83 0 0 0 -1.62.34 4.39 4.39 0 0 0 -1.34.9 4.33 4.33 0 0 0 -.91 1.31 4.19 4.19 0 0 0 0 3.26 4.55 4.55 0 0 0 .91 1.33 4.42 4.42 0 0 0 1.34.91 4 4 0 0 0 1.62.34 4.11 4.11 0 0 0 1.64-.34 4.18 4.18 0 0 0 1.34-.91 4.5 4.5 0 0 0 .89-1.33 4.08 4.08 0 0 0 0-3.26 4.28 4.28 0 0 0 -.89-1.31 4.16 4.16 0 0 0 -1.34-.9 4 4 0 0 0 -1.64-.34z"/><path d="m180.82 391.24a4.32 4.32 0 0 0 -1.54.28 4.66 4.66 0 0 0 -1.36.77 4.71 4.71 0 0 0 -1 1.14 2.82 2.82 0 0 0 -.42 1.37v6.34h-1.5v-11.27h1.48v1.57a6.38 6.38 0 0 1 2-1.32 5.71 5.71 0 0 1 2.31-.51 4.26 4.26 0 0 1 3.4 1.56 5 5 0 0 1 .89 1.68 6.63 6.63 0 0 1 .31 2.06v6.23h-1.6v-6.23a4.28 4.28 0 0 0 -.77-2.6 2.56 2.56 0 0 0 -2.2-1.07z"/><path d="m199.53 401.14h-1.6v-1.63l-.14.14a5.6 5.6 0 0 1 -1.89 1.26 5.88 5.88 0 0 1 -2.26.45 5.51 5.51 0 0 1 -2.22-.45 5.85 5.85 0 0 1 -1.84-1.24 6.11 6.11 0 0 1 -1.26-1.86 5.83 5.83 0 0 1 0-4.54 6 6 0 0 1 3.12-3.11 5.49 5.49 0 0 1 2.25-.46 5.17 5.17 0 0 1 2.35.54 7.66 7.66 0 0 1 1.89 1.36v-7.26h1.6zm-5.84-9.79a3.83 3.83 0 0 0 -1.62.34 4.43 4.43 0 0 0 -2.25 2.21 4.19 4.19 0 0 0 0 3.26 4.4 4.4 0 0 0 .92 1.33 4.25 4.25 0 0 0 1.33.91 4 4 0 0 0 1.62.34 4.11 4.11 0 0 0 1.64-.34 4.18 4.18 0 0 0 1.34-.91 4.5 4.5 0 0 0 .89-1.33 4.08 4.08 0 0 0 0-3.26 4.28 4.28 0 0 0 -.89-1.31 4.16 4.16 0 0 0 -1.34-.9 4 4 0 0 0 -1.64-.34z"/></g><path d="m117.62 6.91a6.92 6.92 0 1 1 -6.92-6.91 6.91 6.91 0 0 1 6.92 6.91z" fill="#ed1c24"/><path d="m177.6 6.91a6.91 6.91 0 1 1 -6.91-6.91 6.91 6.91 0 0 1 6.91 6.91z" fill="#ed1c24"/><path d="m96.11 75.43a12.74 12.74 0 1 0 17.83-2.59 12.74 12.74 0 0 0 -17.83 2.59z" fill="#231f20"/><path d="m151.24 68.14a14.25 14.25 0 1 0 19.93-2.89 14.24 14.24 0 0 0 -19.93 2.89z" fill="#231f20"/><path d="m155.33 117.42a10.55 10.55 0 1 0 14.76-2.14 10.55 10.55 0 0 0 -14.76 2.14z" fill="#231f20"/><path d="m237.45 128a10.63 10.63 0 1 0 14.88-2.16 10.62 10.62 0 0 0 -14.88 2.16z" fill="#231f20"/><path d="m204.11 96.91a7 7 0 1 0 9.89-1.43 7 7 0 0 0 -9.89 1.43z" fill="#231f20"/><path d="m48.1 172.21a11.13 11.13 0 1 0 15.57-2.21 11.13 11.13 0 0 0 -15.57 2.21z" fill="#231f20"/><path d="m191.3 141.57a14.24 14.24 0 1 0 19.93-2.89 14.24 14.24 0 0 0 -19.93 2.89z" fill="#231f20"/><path d="m79.62 135.14a7 7 0 1 0 9.86-1.43 7.06 7.06 0 0 0 -9.86 1.43z" fill="#231f20"/><path d="m240.33 185.79a7 7 0 1 0 9.85-1.43 7 7 0 0 0 -9.85 1.43z" fill="#231f20"/></svg>