<svg viewBox="0 0 617.43 277.72" xmlns="http://www.w3.org/2000/svg"><ellipse cx="139.22" cy="158.51" fill="#f7941d" rx="86.75" ry="119.21"/><path d="m139.17 140.39q-.31 0-.63-.09c-1.71 33.68-60.32 70-45.7 90.22s32.83 31.68 51.38 29.73c17.34-1.82 32-15.06 42-35.42 11.51-23.17-39.44-49.63-47.05-84.44z" fill="#f15c22" opacity=".2"/><path d="m139.45 15.72c25.35 0 45.9 14.6 45.9 32.61s-20.55 32.67-45.9 32.67-45.89-14.66-45.89-32.67 20.54-32.61 45.89-32.61z" fill="#f7941d"/><path d="m46.37 93.45c-42.81 45.43-58.87 100.23-35.88 122.4s76.34 3.29 119.14-42.15 58.87-100.24 35.88-122.4-76.34-3.3-119.14 42.15z" fill="#ed1c24"/><path d="m238.66 91.62c43.06 45.16 58.64 100.21 34.8 123s-78.1 4.57-121.17-40.6-58.64-100.26-34.79-123.02 78.09-4.54 121.16 40.62z" fill="#ed1c24"/><path d="m60.11 90.43c-37.11 30.64-39.21 60.14-50.11 88.83-.81 2.11 1.78 3.77 3.08 5.39 97.69-122.31 75.35 22.16 100.53-27.46 23.58-46.46 46.43-50.51 47-94.23s-59.76-6.14-100.5 27.47z" fill="#ed1c24" opacity=".7"/><path d="m111 142.87a10.09 10.09 0 1 0 14.12-2.05 10.09 10.09 0 0 0 -14.12 2.05z" fill="#231f20"/><path d="m39.07 115.42a12.38 12.38 0 1 0 17.33-2.52 12.38 12.38 0 0 0 -17.33 2.52z" fill="#231f20"/><path d="m319.79 211.19a9.5 9.5 0 0 1 1.19.07 8.41 8.41 0 0 0 1 .08 14.44 14.44 0 0 0 5.05-.74 7.89 7.89 0 0 0 3-1.83 5.76 5.76 0 0 0 1.41-2.49 18 18 0 0 0 .52-2.86v-71.26h8.3v71.41a15.3 15.3 0 0 1 -1.4 6.52 16.27 16.27 0 0 1 -3.86 5.21 17.74 17.74 0 0 1 -5.56 3.37 18.42 18.42 0 0 1 -6.53 1.17c-.49 0-1 0-1.55-.07s-1.06-.13-1.56-.22zm8.6-102.63a6.34 6.34 0 0 1 2.08-4.77 6.67 6.67 0 0 1 4.74-2 6.84 6.84 0 0 1 4.9 11.59 6.69 6.69 0 0 1 -4.9 1.9 6.79 6.79 0 0 1 -4.74-1.9 6.27 6.27 0 0 1 -2.08-4.82z" fill="#ed1c24"/><path d="m352.12 108.7a6.49 6.49 0 0 1 1.93-4.83 6.66 6.66 0 0 1 4.89-1.91 6.56 6.56 0 0 1 4.67 1.91 6.36 6.36 0 0 1 2 4.83 6.53 6.53 0 0 1 -2 4.7 6.31 6.31 0 0 1 -4.67 2 6.39 6.39 0 0 1 -4.89-2 6.66 6.66 0 0 1 -1.93-4.7zm10.82 82.4h-8v-58.94h8z" fill="#ed1c24"/><path d="m400.46 184.21a.32.32 0 0 0 .23-.07s.17-.07.37-.07h3.56v7.18a11.57 11.57 0 0 1 -2.6 1 9.51 9.51 0 0 1 -1.56.14 17.25 17.25 0 0 1 -11.42-4q-4.74-3.94-4.74-10.85v-37.31h-9.49v-8.07h9.49v-18.76h8.3v18.76h11.87v8.07h-11.87v37.38a5.74 5.74 0 0 0 2.23 5 9.31 9.31 0 0 0 5.63 1.6z" fill="#ed1c24"/><path d="m416.33 103.28h8.45v38a39.23 39.23 0 0 1 10-7.11 27.38 27.38 0 0 1 12.39-2.86 29.67 29.67 0 0 1 11.94 2.42 32.07 32.07 0 0 1 9.78 6.6 31.45 31.45 0 0 1 6.68 9.68 28.69 28.69 0 0 1 2.44 11.8 29.09 29.09 0 0 1 -2.44 11.95 31.57 31.57 0 0 1 -6.68 9.68 31 31 0 0 1 -9.71 6.52 29.56 29.56 0 0 1 -11.72 2.35 31.14 31.14 0 0 1 -11.93-2.35 30.55 30.55 0 0 1 -10-6.6l-.74-.73v8.5h-8.45zm30.85 36.65a21.72 21.72 0 0 0 -8.68 1.76 22.27 22.27 0 0 0 -11.79 11.59 21.18 21.18 0 0 0 0 17 23.59 23.59 0 0 0 4.75 7 21.94 21.94 0 0 0 7 4.76 21.55 21.55 0 0 0 8.68 1.76 21 21 0 0 0 8.6-1.76 23.09 23.09 0 0 0 7-4.76 22.72 22.72 0 0 0 4.82-7 21.18 21.18 0 0 0 0-17 21.94 21.94 0 0 0 -4.82-6.9 24 24 0 0 0 -7-4.69 21.2 21.2 0 0 0 -8.56-1.76z" fill="#231f20"/><path d="m512.88 183.91a23.45 23.45 0 0 0 8.15-1.46 25.36 25.36 0 0 0 7.2-4 23.18 23.18 0 0 0 5.26-5.94 14.55 14.55 0 0 0 2.23-7.19v-33.16h7.85v58.94h-7.85v-8.21a35.53 35.53 0 0 1 -10.61 6.89 30.82 30.82 0 0 1 -12.23 2.64 23.38 23.38 0 0 1 -10.31-2.2 22.8 22.8 0 0 1 -7.63-5.94 26 26 0 0 1 -4.75-8.8 34.79 34.79 0 0 1 -1.63-10.77v-32.55h8.44v32.55a22.43 22.43 0 0 0 4.08 13.63q4.09 5.58 11.8 5.57z" fill="#231f20"/><path d="m586.73 255.76a30.49 30.49 0 0 1 -11.94-2.34 31.54 31.54 0 0 1 -9.79-6.42 30.23 30.23 0 0 1 -6.67-9.67 29.6 29.6 0 0 1 -2.45-12 27.68 27.68 0 0 1 5.34-16.72 34.29 34.29 0 0 1 13.64-11.14 16.33 16.33 0 0 1 3.34-1.1q1.71-.37 3.63-.66v-3.52a41.58 41.58 0 0 1 -7-1.91 34.65 34.65 0 0 1 -13.42-11.29 32 32 0 0 1 -4.08-7.84 26.3 26.3 0 0 1 -1.48-8.87 28.7 28.7 0 0 1 2.45-11.8 31.42 31.42 0 0 1 6.67-9.68 31.94 31.94 0 0 1 9.79-6.6 29.67 29.67 0 0 1 11.94-2.42 30.18 30.18 0 0 1 12 2.42 30.78 30.78 0 0 1 9.79 6.6 31.16 31.16 0 0 1 6.52 9.68 29.48 29.48 0 0 1 2.38 11.8 28.38 28.38 0 0 1 -5.19 16.94 33.11 33.11 0 0 1 -13.8 11.06h.15a27.57 27.57 0 0 1 -8.6 2.2v3.08a36.63 36.63 0 0 1 8.45 1.91 34.09 34.09 0 0 1 13.65 11.21 27.79 27.79 0 0 1 5.34 16.65 30.41 30.41 0 0 1 -2.38 12 30 30 0 0 1 -6.52 9.67 30.42 30.42 0 0 1 -9.79 6.46 31 31 0 0 1 -11.97 2.3zm0-115.53a22.56 22.56 0 0 0 -8.68 1.68 21.74 21.74 0 0 0 -7 4.62 22.48 22.48 0 0 0 -4.75 7 21.45 21.45 0 0 0 -1.78 8.72 20.55 20.55 0 0 0 1.78 8.5 22.6 22.6 0 0 0 4.75 6.89 21.43 21.43 0 0 0 7 4.62 22.38 22.38 0 0 0 8.68 1.69 21.84 21.84 0 0 0 8.6-1.69 22.52 22.52 0 0 0 7-4.62 21.79 21.79 0 0 0 4.82-6.89 20.4 20.4 0 0 0 1.78-8.5 21.28 21.28 0 0 0 -1.78-8.72 21.69 21.69 0 0 0 -4.82-7 22.87 22.87 0 0 0 -7-4.62 22 22 0 0 0 -8.6-1.68zm0 63.34a22.56 22.56 0 0 0 -8.68 1.68 21.58 21.58 0 0 0 -7 4.62 22.6 22.6 0 0 0 -4.75 6.89 20.6 20.6 0 0 0 -1.78 8.51 22 22 0 0 0 1.78 8.79 22.23 22.23 0 0 0 4.75 7 21.74 21.74 0 0 0 7 4.62 22.57 22.57 0 0 0 8.68 1.69 22 22 0 0 0 8.6-1.69 22.87 22.87 0 0 0 7-4.62 21.46 21.46 0 0 0 4.82-7 21.82 21.82 0 0 0 1.78-8.79 20.44 20.44 0 0 0 -1.78-8.51 21.79 21.79 0 0 0 -4.82-6.89 22.69 22.69 0 0 0 -7-4.62 22 22 0 0 0 -8.6-1.68z" fill="#231f20"/><path d="m117.62 6.91a6.92 6.92 0 1 1 -6.92-6.91 6.91 6.91 0 0 1 6.92 6.91z" fill="#ed1c24"/><path d="m177.6 6.91a6.91 6.91 0 1 1 -6.91-6.91 6.91 6.91 0 0 1 6.91 6.91z" fill="#ed1c24"/><g fill="#231f20"><path d="m96.11 75.43a12.74 12.74 0 1 0 17.83-2.59 12.74 12.74 0 0 0 -17.83 2.59z"/><path d="m151.24 68.14a14.25 14.25 0 1 0 19.93-2.89 14.24 14.24 0 0 0 -19.93 2.89z"/><path d="m155.33 117.42a10.55 10.55 0 1 0 14.76-2.14 10.55 10.55 0 0 0 -14.76 2.14z"/><path d="m237.45 128a10.63 10.63 0 1 0 14.88-2.16 10.62 10.62 0 0 0 -14.88 2.16z"/><path d="m204.11 96.91a7 7 0 1 0 9.89-1.43 7 7 0 0 0 -9.89 1.43z"/><path d="m48.1 172.21a11.13 11.13 0 1 0 15.57-2.21 11.13 11.13 0 0 0 -15.57 2.21z"/><path d="m191.3 141.57a14.24 14.24 0 1 0 19.93-2.89 14.24 14.24 0 0 0 -19.93 2.89z"/><path d="m79.62 135.14a7 7 0 1 0 9.86-1.43 7.06 7.06 0 0 0 -9.86 1.43z"/><path d="m240.33 185.79a7 7 0 1 0 9.85-1.43 7 7 0 0 0 -9.85 1.43z"/></g></svg>